<svg height="512" viewBox="0 0 64 64" width="512" xmlns="http://www.w3.org/2000/svg" xmlns:xlink="http://www.w3.org/1999/xlink"><linearGradient id="New_Gradient_Swatch" gradientUnits="userSpaceOnUse" x1="27" x2="27" y1="63.958" y2="-.075"><stop offset="0" stop-color="#e93e3a"/><stop offset=".35" stop-color="#ed683c"/><stop offset=".7" stop-color="#f3903f"/><stop offset="1" stop-color="#fdc70c"/></linearGradient><linearGradient id="New_Gradient_Swatch-4" x1="14" x2="14" xlink:href="#New_Gradient_Swatch" y1="63.958" y2="-.075"/><linearGradient id="New_Gradient_Swatch-5" x1="23" x2="23" xlink:href="#New_Gradient_Swatch" y1="63.958" y2="-.075"/><linearGradient id="New_Gradient_Swatch-6" x1="20" x2="20" xlink:href="#New_Gradient_Swatch" y1="63.958" y2="-.075"/><linearGradient id="New_Gradient_Swatch-10" x1="31.5" x2="31.5" xlink:href="#New_Gradient_Swatch" y1="63.958" y2="-.075"/><linearGradient id="New_Gradient_Swatch-11" x1="37" x2="37" xlink:href="#New_Gradient_Swatch" y1="63.958" y2="-.075"/><linearGradient id="New_Gradient_Swatch-12" x1="51" x2="51" xlink:href="#New_Gradient_Swatch" y1="63.958" y2="-.075"/><linearGradient id="New_Gradient_Swatch-13" x1="53" x2="53" xlink:href="#New_Gradient_Swatch" y1="63.958" y2="-.075"/><linearGradient id="New_Gradient_Swatch-15" x1="49" x2="49" xlink:href="#New_Gradient_Swatch" y1="63.958" y2="-.075"/><linearGradient id="New_Gradient_Swatch-16" x1="42" x2="42" xlink:href="#New_Gradient_Swatch" y1="63.958" y2="-.075"/><linearGradient id="New_Gradient_Swatch-17" x1="46" x2="46" xlink:href="#New_Gradient_Swatch" y1="63.958" y2="-.075"/><g id="Contract-Document-Game-Gaming-Joystick"><path d="m22.747 15.617.726.529-.273.854a2 2 0 0 0 3.077 2.235l.723-.527.727.527a1.969 1.969 0 0 0 2.351 0 1.969 1.969 0 0 0 .722-2.235l-.277-.854.726-.529a2 2 0 0 0 -1.171-3.617h-.9l-.278-.854a2 2 0 0 0 -3.8 0l-.28.854h-.9a2 2 0 0 0 -1.175 3.617zm2.8-1.617a1 1 0 0 0 .951-.691l.5-1.557v.012l.5 1.545a1 1 0 0 0 .951.691h1.625l-1.315.955a1 1 0 0 0 -.363 1.117l.5 1.546-1.314-.955a1 1 0 0 0 -1.176 0l-1.314.954.5-1.545a1 1 0 0 0 -.363-1.117l-1.307-.955z" fill="url(#New_Gradient_Swatch)"/><path d="m16 24h22v2h-22z" fill="url(#New_Gradient_Swatch)"/><path d="m13 28h28v2h-28z" fill="url(#New_Gradient_Swatch)"/><path d="m13 34h2v2h-2z" fill="url(#New_Gradient_Swatch-4)"/><path d="m17 34h12v2h-12z" fill="url(#New_Gradient_Swatch-5)"/><g fill="url(#New_Gradient_Swatch-6)"><path d="m13 38h14v2h-14z"/><path d="m13 42h14v2h-14z"/><path d="m13 46h14v2h-14z"/><path d="m13 50h14v2h-14z"/></g><path d="m50 36h-1v-31a3.009 3.009 0 0 0 -3-3h-38a3.009 3.009 0 0 0 -3 3v54a3.009 3.009 0 0 0 3 3h38a3.009 3.009 0 0 0 3-3v-9.09l2.38 1.88a1.076 1.076 0 0 0 .62.21h3a3.009 3.009 0 0 0 3-3v-5a8.011 8.011 0 0 0 -8-8zm-37-32h2v2.7l-.17-.25a.99.99 0 0 0 -1.66 0l-.17.25zm34 55a1 1 0 0 1 -1 1h-38a1 1 0 0 1 -1-1v-54a1 1 0 0 1 1-1h3v6a1.008 1.008 0 0 0 .71.96.992.992 0 0 0 1.12-.41l1.17-1.75 1.17 1.75a.984.984 0 0 0 .83.45.967.967 0 0 0 .29-.04 1.008 1.008 0 0 0 .71-.96v-6h29a1 1 0 0 1 1 1v31h-9a8.011 8.011 0 0 0 -8 8v5a3.009 3.009 0 0 0 3 3h3a1.076 1.076 0 0 0 .62-.21l4.52-3.58a1.076 1.076 0 0 1 .62-.21h4.48a1.02 1.02 0 0 1 .62.22l.14.11zm9-10a1 1 0 0 1 -1 1h-2.65l-4.25-3.35a3.006 3.006 0 0 0 -1.86-.65h-4.48a3.006 3.006 0 0 0 -1.86.65l-4.25 3.35h-2.65a1 1 0 0 1 -1-1v-5a6 6 0 0 1 6-6h12a6 6 0 0 1 6 6z" fill="url(#New_Gradient_Swatch-10)"/><path d="m38 40h-2v2h-2v2h2v2h2v-2h2v-2h-2z" fill="url(#New_Gradient_Swatch-11)"/><path d="m50 40h2v2h-2z" fill="url(#New_Gradient_Swatch-12)"/><path d="m52 42h2v2h-2z" fill="url(#New_Gradient_Swatch-13)"/><path d="m50 44h2v2h-2z" fill="url(#New_Gradient_Swatch-12)"/><path d="m48 42h2v2h-2z" fill="url(#New_Gradient_Swatch-15)"/><path d="m41 40h2v2h-2z" fill="url(#New_Gradient_Swatch-16)"/><path d="m45 40h2v2h-2z" fill="url(#New_Gradient_Swatch-17)"/></g></svg>