<svg xmlns="http://www.w3.org/2000/svg" xmlns:xlink="http://www.w3.org/1999/xlink" viewBox="0 0 220.9 144.03"><defs><style>.cls-1{fill:url(#linear-gradient);}.cls-2{fill:url(#linear-gradient-2);}.cls-3{fill:url(#linear-gradient-3);}.cls-4{fill:#3a3d4c;}.cls-5{fill:url(#linear-gradient-4);}.cls-6{font-size:5.49px;fill:#fff;font-family:Montserrat-Medium, Montserrat Medium;font-weight:500;}</style><linearGradient id="linear-gradient" x1="161.16" y1="158.58" x2="62.18" y2="-10.39" gradientUnits="userSpaceOnUse"><stop offset="0" stop-color="#121623"/><stop offset="0.99" stop-color="#272935"/></linearGradient><linearGradient id="linear-gradient-2" x1="111.79" y1="101.52" x2="111.79" y2="32.07" gradientUnits="userSpaceOnUse"><stop offset="0" stop-color="#c31fe6"/><stop offset="0.99" stop-color="#fbfefe"/></linearGradient><linearGradient id="linear-gradient-3" x1="111.79" y1="101.52" x2="111.79" y2="40.8" gradientUnits="userSpaceOnUse"><stop offset="0.01" stop-color="#5a6ff0"/><stop offset="0.13" stop-color="#5577ef"/><stop offset="0.33" stop-color="#488dec"/><stop offset="0.57" stop-color="#31b0e7"/><stop offset="0.84" stop-color="#13e1e1"/><stop offset="0.99" stop-color="#0fd"/></linearGradient><linearGradient id="linear-gradient-4" x1="16.83" y1="82.26" x2="206.74" y2="82.26" gradientUnits="userSpaceOnUse"><stop offset="0.01" stop-color="#5a6ff0"/><stop offset="0.99" stop-color="#c31fe6"/></linearGradient></defs><title>Asset 4</title><g id="Layer_2" data-name="Layer 2"><g id="OBJECTS"><rect class="cls-1" width="220.9" height="144.03" rx="9.34"/><path class="cls-2" d="M16.83,52s20.73,15.49,46,15.49,29.88-17.78,42.68-17.78,27.74,12.53,57.92,12.53,43.28-30.15,43.28-30.15v69.45H16.83Z"/><path class="cls-3" d="M16.83,79.27s16.46-23,36.35-23S85,73.9,103.94,73.9s30.67-33.1,54.45-33.1,48.35,34.45,48.35,34.45v26.27H16.83Z"/><path class="cls-4" d="M12,58.34A1.31,1.31,0,1,1,10.71,57,1.31,1.31,0,0,1,12,58.34Z"/><path class="cls-4" d="M12,71.12a1.31,1.31,0,1,1-1.31-1.31A1.31,1.31,0,0,1,12,71.12Z"/><path class="cls-4" d="M12,83.91a1.31,1.31,0,1,1-1.31-1.32A1.31,1.31,0,0,1,12,83.91Z"/><path class="cls-4" d="M12,96.69a1.31,1.31,0,1,1-1.31-1.31A1.31,1.31,0,0,1,12,96.69Z"/><circle class="cls-4" cx="17.29" cy="105.19" r="1.31"/><path class="cls-4" d="M35.71,105.19a1.31,1.31,0,1,1-1.31-1.31A1.32,1.32,0,0,1,35.71,105.19Z"/><path class="cls-4" d="M52.81,105.19a1.31,1.31,0,1,1-1.31-1.31A1.31,1.31,0,0,1,52.81,105.19Z"/><path class="cls-4" d="M69.92,105.19a1.32,1.32,0,1,1-1.32-1.31A1.32,1.32,0,0,1,69.92,105.19Z"/><path class="cls-4" d="M87,105.19a1.31,1.31,0,1,1-1.31-1.31A1.32,1.32,0,0,1,87,105.19Z"/><path class="cls-4" d="M104.12,105.19a1.31,1.31,0,1,1-1.31-1.31A1.31,1.31,0,0,1,104.12,105.19Z"/><path class="cls-4" d="M121.23,105.19a1.32,1.32,0,1,1-1.32-1.31A1.32,1.32,0,0,1,121.23,105.19Z"/><path class="cls-4" d="M138.33,105.19a1.31,1.31,0,1,1-1.31-1.31A1.32,1.32,0,0,1,138.33,105.19Z"/><circle class="cls-4" cx="154.12" cy="105.19" r="1.31"/><circle class="cls-4" cx="171.23" cy="105.19" r="1.31"/><path class="cls-4" d="M189.64,105.19a1.31,1.31,0,1,1-1.31-1.31A1.32,1.32,0,0,1,189.64,105.19Z"/><circle class="cls-4" cx="205.43" cy="105.19" r="1.31"/><path class="cls-5" d="M16.83,83.53s13.11-8.87,29.42-8.87,34.9,14.52,48.16,14.52,19.48-13.26,35.67-13.26S154.61,86.4,171.23,86.4,192.87,63,206.74,63v38.52H16.83Z"/><text class="cls-6" transform="translate(14.02 128.67)">01</text><text class="cls-6" transform="translate(201.59 128.67)">02</text><path class="cls-4" d="M196,126.87H25a.58.58,0,0,0-.58.57h0A.57.57,0,0,0,25,128H196a.57.57,0,0,0,.57-.57h0A.58.58,0,0,0,196,126.87Z"/></g></g></svg>